<mxfile host="app.diagrams.net" agent="Mozilla/5.0 (iPhone; CPU iPhone OS 18_2_1 like Mac OS X) AppleWebKit/605.1.15 (KHTML, like Gecko) CriOS/132.0.6834.100 Mobile/15E148 Safari/604.1" version="26.0.9">
  <diagram name="Page-1" id="eZdHl6b4IXohNmE1RNcu">
    <mxGraphModel>
      <root>
        <mxCell id="0" />
        <mxCell id="1" parent="0" />
      </root>
    </mxGraphModel>
  </diagram>
</mxfile>
